<svg preserveAspectRatio="none" width="100%" height="100%" overflow="visible" style="display: block;" viewBox="0 0 129 40" fill="none" xmlns="http://www.w3.org/2000/svg">
<g id="Group">
<path id="Vector" d="M9.40959e-05 39.3917H7.43659V26.031H19.9886V19.3507H7.43659V9.73124H23.3813V3.05088H9.40959e-05V39.3917Z" fill="var(--fill-0, black)"/>
<path id="Vector_2" d="M27.7371 39.3917H34.973V-4.06901e-05L27.7371 0.982944V39.3917Z" fill="var(--fill-0, black)"/>
<path id="Vector_3" d="M54.8171 11.0496C45.4212 11.0496 39.5825 16.5957 39.5825 25.5248C39.5825 34.4538 45.4212 40 54.8171 40C64.213 40 70.0024 34.4538 70.0024 25.5248C70.0024 16.5957 64.1834 11.0496 54.8171 11.0496ZM54.8171 33.7273C49.935 33.7273 47.0222 30.66 47.0222 25.5248C47.0222 20.3896 49.935 17.3223 54.8171 17.3223C59.6991 17.3223 62.5626 20.3896 62.5626 25.5248C62.5626 30.66 59.6662 33.7273 54.8171 33.7273Z" fill="var(--fill-0, black)"/>
<path id="Vector_4" d="M90.5661 11.1909C87.2555 12.713 83.2151 16.2439 81.2886 21.6092V11.3849L74.5589 12.3218V39.3884H81.7949V32.4549C81.7949 30.1142 82.6759 22.1517 94.0016 17.9501L94.4849 17.7726L90.9606 11.0101L90.5694 11.1909H90.5661Z" fill="var(--fill-0, black)"/>
<path id="Vector_5" d="M126.591 32.7673C124.727 32.7673 124.158 32.0933 124.158 29.8742V21.481C124.158 14.9815 119.598 11.1021 111.965 11.1021C106.096 11.1021 100.435 13.4955 96.4276 17.6674L96.2008 17.9041L99.1563 23.5785L99.5936 23.1084C103.026 19.4263 107.129 17.48 111.462 17.48C113.375 17.48 114.723 17.8844 115.584 18.7194C116.4 19.4986 116.834 20.7019 116.913 22.3884C110.564 21.2147 104.114 22.4048 100.346 25.4721C98.147 27.2639 96.9832 29.6145 96.9832 32.2643C96.9832 37.0378 100.609 39.9999 106.445 39.9999C109.44 39.9999 112.274 39.1715 114.417 37.6625C116.018 36.5348 117.212 35.0751 117.948 33.3623C118.911 38.6191 123.096 39.3983 127.203 39.3983H128.258V32.7673H126.591ZM116.926 27.2934C116.926 31.5837 112.75 33.8259 108.628 33.8259C105.837 33.8259 104.42 32.8889 104.42 31.0347C104.42 29.4928 105.304 28.2764 109.726 26.968C111.79 26.3039 114.772 25.5149 116.926 25.0612V27.2902V27.2934Z" fill="var(--fill-0, black)"/>
</g>
</svg>
