<svg preserveAspectRatio="none" width="100%" height="100%" overflow="visible" style="display: block;" viewBox="0 0 64 64" fill="none" xmlns="http://www.w3.org/2000/svg">
<g id="mark">
<path id="F4" d="M12.659 55.8271V55.819C12.4488 54.5578 12.3375 53.256 12.3375 51.9339C12.3375 41.0353 19.8192 31.8576 29.9884 29.132C26.093 30.1449 22.2553 31.3288 18.6856 33.2245C13.6319 35.9013 9.34074 40.1363 8.66471 45.9781C8.20303 49.9527 9.24181 54.0046 10.969 57.5805C12.4488 60.6438 14.3697 62.7551 15.6806 64C13.8957 61.7218 12.791 58.9026 12.6673 55.8312L12.659 55.8271Z" fill="url(#paint0_linear_293_5766)"/>
<g id="F3">
<path id="Vector" d="M12.3377 51.9339C12.3377 53.256 12.449 54.5538 12.6592 55.819V55.8271C12.651 55.6318 12.6468 55.4325 12.6468 55.2372C12.6468 55.1884 12.6468 55.1436 12.6468 55.0948C12.5314 52.9265 12.7334 51.1813 12.7911 50.7338C12.9684 49.2774 13.36 46.328 15.0459 42.8741C17.0905 38.6921 19.8729 36.1739 21.0518 35.1894C23.8425 32.8624 26.4848 31.7803 27.9358 31.1986C30.4585 30.1897 31.8641 30.0513 35.6689 29.2011C39.1314 28.4241 42.0499 27.7732 45.4713 26.6138C52.8334 24.1159 57.9901 20.8207 59.2803 19.8891C59.4329 19.7793 60.5252 18.986 62.0463 17.9201C62.8213 17.3791 63.4519 16.9438 63.8518 16.6672C63.9012 16.6183 63.9507 16.5655 64.0002 16.5166C63.2417 16.9641 62.0587 17.6476 60.5747 18.4368C57.6233 20.0112 49.9355 23.9003 38.1256 27.0775C38.1092 27.0816 38.0968 27.0857 38.0803 27.0897C37.4743 27.2525 36.8684 27.4111 36.2583 27.5657C36.1965 27.582 36.1388 27.5942 36.0769 27.6105C35.504 27.7569 34.931 27.8993 34.358 28.0376C33.7273 28.1922 33.0967 28.3468 32.4618 28.5055C32.4083 28.5177 32.3588 28.5299 32.3052 28.5461C31.7199 28.6926 31.1345 28.839 30.5492 28.9855C30.3596 29.0343 30.17 29.0831 29.9803 29.1319C19.8111 31.8576 12.3294 41.0353 12.3294 51.9339H12.3377Z" fill="url(#paint1_linear_293_5766)"/>
</g>
<g id="F2">
<path id="Vector_2" d="M26.9462 37.0119C29.7162 35.5026 32.0411 34.7216 33.3602 34.2822C34.4526 33.9201 35.3883 33.6598 36.0932 33.4767C40.1287 32.2359 45.2978 30.2263 50.8339 26.9026C56.5471 23.4691 60.8341 19.7223 63.8515 16.6631C63.4516 16.9357 62.821 17.3709 62.046 17.9161C60.5249 18.9819 59.4285 19.7752 59.2801 19.8851C57.9898 20.8126 52.8331 24.1119 45.471 26.6097C42.0455 27.7691 39.1312 28.4241 35.6686 29.197C31.8639 30.0473 30.4582 30.1856 27.9355 31.1945C26.4845 31.7762 23.8463 32.8584 21.0515 35.1853C19.8726 36.1698 17.0902 38.688 15.0456 42.8701C13.3556 46.3198 12.9681 49.2733 12.7908 50.7297C12.7372 51.1772 12.5353 52.9265 12.6466 55.0907C12.6672 53.1706 13.0711 51.6857 13.3102 50.9331C14.1305 48.3783 15.7175 46.0635 17.5601 44.42C17.5766 44.3997 19.0317 42.8945 19.4151 42.508C20.8413 41.0679 23.5248 38.8711 26.9421 37.0119H26.9462Z" fill="url(#paint2_linear_293_5766)"/>
</g>
<path id="F1" d="M57.582 23.286C59.7708 21.3293 61.3455 19.6166 62.1905 18.6687C62.9407 17.8225 63.5549 17.078 64.0001 16.5166C62.4997 18.0463 60.6241 19.8118 58.3528 21.6466C55.4096 24.0264 52.7509 25.7513 50.8341 26.9067C45.2981 30.2303 40.1289 32.24 36.0934 33.4808C35.3885 33.6639 34.4486 33.9242 33.3604 34.2863C32.0413 34.7216 29.7165 35.5067 26.9464 37.016C23.5292 38.8751 20.8498 41.0719 19.4194 42.5121C19.036 42.8985 17.5809 44.4037 17.5645 44.42C18.1003 43.8871 18.7351 43.4152 19.4854 43.0165C20.1078 42.5039 20.9776 41.8327 22.0823 41.1289C23.0963 40.478 24.3742 39.7579 26.6372 38.7816C28.8178 37.8418 30.2565 37.3781 32.536 36.5888C36.4314 35.2382 38.377 34.5629 40.6813 33.6232C42.6929 32.8014 45.0384 31.8332 47.9651 30.1897C50.0344 29.0262 51.5925 27.9725 52.3963 27.4111C53.1136 26.9107 55.154 25.4625 57.5861 23.2901L57.582 23.286Z" fill="url(#paint3_linear_293_5766)"/>
<g id="F front">
<path id="Vector_3" d="M28.3725 40.8319C31.4641 40.4088 34.5805 40.1078 37.6473 39.5179C38.2656 39.3999 38.8881 39.2738 39.5023 39.1436C40.1206 39.0135 40.7348 38.8792 41.349 38.7368C41.9632 38.5944 42.5774 38.4439 43.1874 38.2893C46.2461 37.5164 49.2634 36.5807 52.2066 35.4416C52.7343 35.2382 53.2578 35.0267 53.7772 34.8111C54.1234 34.6687 54.4697 34.5222 54.8159 34.3717C55.3312 34.148 55.8465 33.9202 56.3535 33.6842C56.0773 34.0178 55.6898 34.4775 55.2075 35.0145C54.4655 35.8403 52.5199 37.9924 49.9312 39.9939C46.9386 42.3087 44.218 43.5535 42.4248 44.359C38.6696 46.0473 35.4997 46.8243 33.0965 47.4101C30.0296 48.1587 27.3049 48.6794 27.3049 48.6794C25.8704 48.956 25.4788 49.0008 24.4112 49.2448C21.7978 49.8429 20.4911 50.1439 19.2585 50.8924C16.9708 52.2797 15.9402 54.33 15.7176 54.7938C14.7943 56.718 14.8273 58.4348 14.852 59.6512C14.8891 61.5225 15.3137 63.0277 15.6682 63.9919C14.6418 62.6819 13.838 61.193 13.3186 59.5779C13.1042 58.9148 12.6467 57.3242 12.6384 55.2291C12.6261 51.4416 14.0935 48.7241 14.3986 48.179C14.3986 48.179 15.9938 45.3232 18.5413 43.5861C19.0937 43.2118 19.6914 42.8863 19.6914 42.8863C19.8604 42.7928 20.0706 42.6829 20.3468 42.5568C20.7343 42.3819 21.1176 42.2395 21.5051 42.1337C23.764 41.5194 26.06 41.1411 28.3684 40.8238L28.3725 40.8319Z" fill="url(#paint4_linear_293_5766)"/>
</g>
<g id="Plumes 8A">
<path id="Plume 2" d="M6.80155 9.42588C6.5501 7.92881 6.30277 6.42359 6.05545 4.91025C5.78751 3.26672 5.52782 1.62726 5.27637 0C5.65972 0.492245 6.1956 1.20417 6.80155 2.08289C7.37453 2.91686 9.96734 6.88736 12.3293 13.2255C14.3244 18.5833 15.5775 24.3031 15.9527 30.2507C13.0919 26.9148 9.47681 21.6669 7.69605 14.5477C7.24262 12.7414 6.96231 11.0206 6.79743 9.42588H6.80155Z" fill="url(#paint5_linear_293_5766)"/>
<path id="Plume 3" d="M11.1174 19.3155C10.7546 18.7582 8.60698 15.4508 6.17081 13.2377C5.8699 12.9651 5.57723 12.6804 5.28868 12.3875C2.99266 10.0483 1.19541 7.23314 0.0618324 4.10881C0.0164891 4.54003 0 4.97532 0 5.41875C0 6.46833 0.115419 7.48943 0.329769 8.47392C0.37099 8.66106 0.416334 8.84412 0.4658 9.03126C0.469922 9.0516 0.478165 9.07194 0.482287 9.09635C2.91434 17.8347 8.47095 25.2916 15.899 30.2263C15.9155 30.2385 15.932 30.2466 15.9485 30.2588C15.4456 28.4241 14.0482 23.8149 11.1132 19.3237L11.1174 19.3155Z" fill="url(#paint6_linear_293_5766)"/>
<path id="Plume 1" d="M22.0822 15.0602C23.5373 13.0994 24.6008 11.0328 24.9718 8.50647C25.0212 8.81972 25.0583 9.13703 25.0913 9.45435C25.0913 9.46248 25.0913 9.47062 25.0913 9.47469C25.1696 10.2558 25.2109 11.0409 25.2109 11.8423C25.2109 12.0254 25.2109 12.2085 25.2026 12.3875C25.182 13.3191 25.1037 14.2344 24.9718 15.1375C24.9718 15.1375 24.8728 15.8129 24.7368 16.48C23.8258 20.8858 21.1959 24.7424 21.1959 24.7424C19.4399 27.3176 17.4695 29.0994 15.9443 30.2548C15.9526 29.5184 15.9979 28.5787 16.1463 27.4925C16.2906 26.4429 16.5956 24.8075 17.2964 22.9158C17.4159 22.5944 18.7103 19.1772 21.0393 16.3743C21.2454 16.1302 21.5999 15.703 22.078 15.0602H22.0822Z" fill="url(#paint7_linear_293_5766)"/>
</g>
<g id="Plumes 9A">
<path id="Vector_4" d="M22.1235 15.0562C23.5786 13.0953 24.6421 11.0287 25.0131 8.5024C25.0625 8.81565 25.0996 9.13296 25.1326 9.45028C25.1326 9.45841 25.1326 9.46655 25.1326 9.47062C25.2109 10.2517 25.2522 11.0369 25.2522 11.8383C25.2522 12.0213 25.2522 12.2044 25.2439 12.3834C25.2233 13.315 25.145 14.2303 25.0131 15.1335C25.0131 15.1335 24.9141 15.8088 24.7781 16.476C23.8671 20.8818 21.2372 24.7384 21.2372 24.7384C19.4812 27.3135 17.5108 29.0953 15.9856 30.2507C15.9939 29.5143 16.0392 28.5746 16.1876 27.4884C16.3319 26.4388 16.6369 24.8034 17.3377 22.9118C17.4572 22.5904 18.7516 19.1731 21.0806 16.3702C21.2867 16.1261 21.6412 15.6989 22.1193 15.0562H22.1235Z" fill="url(#paint8_linear_293_5766)"/>
<g id="Group">
<path id="2 PLUME" d="M6.83878 9.42588C6.58733 7.92881 6.34001 6.42359 6.09268 4.91025C5.82474 3.26672 5.56505 1.62726 5.3136 0C5.69696 0.492245 6.23283 1.20417 6.83878 2.08289C7.41176 2.91686 10.0046 6.88736 12.3665 13.2255C14.3616 18.5833 15.6148 24.3031 15.9899 30.2507C13.1291 26.9148 9.51404 21.6669 7.73328 14.5477C7.27985 12.7414 6.99955 11.0206 6.83466 9.42588H6.83878Z" fill="url(#paint9_linear_293_5766)"/>
<path id="Vector_5" d="M11.1538 19.3155C10.791 18.7582 8.6434 15.4508 6.20723 13.2377C5.90631 12.9651 5.61364 12.6804 5.32509 12.3875C3.02907 10.0483 1.23183 7.23314 0.09825 4.10881C0.0529067 4.54003 0.0364176 4.97532 0.0364176 5.41875C0.0364176 6.46833 0.151837 7.48943 0.366187 8.47392C0.407408 8.66106 0.452752 8.84412 0.502217 9.03126C0.50634 9.0516 0.514583 9.07194 0.518705 9.09635C2.95075 17.8347 8.50737 25.2916 15.9354 30.2263C15.9519 30.2385 15.9684 30.2466 15.9849 30.2588C15.482 28.4241 14.0846 23.8149 11.1496 19.3237L11.1538 19.3155Z" fill="url(#paint10_linear_293_5766)"/>
</g>
</g>
</g>
<defs>
<linearGradient id="paint0_linear_293_5766" x1="9.75295" y1="62.9016" x2="21.7579" y2="29.5467" gradientUnits="userSpaceOnUse">
<stop stop-color="#006C46"/>
<stop offset="0.31" stop-color="#016F46"/>
<stop offset="0.62" stop-color="#057B46"/>
<stop offset="0.93" stop-color="#0B8F47"/>
<stop offset="1" stop-color="#0D9548"/>
</linearGradient>
<linearGradient id="paint1_linear_293_5766" x1="12.3377" y1="36.1739" x2="64.0002" y2="36.1739" gradientUnits="userSpaceOnUse">
<stop stop-color="#0D9548"/>
<stop offset="0.23" stop-color="#109747"/>
<stop offset="0.45" stop-color="#1C9E44"/>
<stop offset="0.67" stop-color="#30A940"/>
<stop offset="0.9" stop-color="#4CB93A"/>
<stop offset="1" stop-color="#5CC237"/>
</linearGradient>
<linearGradient id="paint2_linear_293_5766" x1="12.6136" y1="35.881" x2="63.8556" y2="35.881" gradientUnits="userSpaceOnUse">
<stop stop-color="#0D9548"/>
<stop offset="0.23" stop-color="#109747"/>
<stop offset="0.45" stop-color="#1C9E44"/>
<stop offset="0.67" stop-color="#30A940"/>
<stop offset="0.9" stop-color="#4CB93A"/>
<stop offset="1" stop-color="#5CC237"/>
</linearGradient>
<linearGradient id="paint3_linear_293_5766" x1="17.5686" y1="30.4704" x2="64.0001" y2="30.4704" gradientUnits="userSpaceOnUse">
<stop stop-color="#F27231"/>
<stop offset="1" stop-color="#ED2C7D"/>
</linearGradient>
<linearGradient id="paint4_linear_293_5766" x1="12.6467" y1="48.8421" x2="56.3617" y2="48.8421" gradientUnits="userSpaceOnUse">
<stop stop-color="#5CC237"/>
<stop offset="0.1" stop-color="#4CB93A"/>
<stop offset="0.33" stop-color="#30A940"/>
<stop offset="0.55" stop-color="#1C9E44"/>
<stop offset="0.77" stop-color="#109747"/>
<stop offset="1" stop-color="#0D9548"/>
</linearGradient>
<linearGradient id="paint5_linear_293_5766" x1="5.27637" y1="15.1253" x2="15.9527" y2="15.1253" gradientUnits="userSpaceOnUse">
<stop stop-color="#F58430"/>
<stop offset="0.97" stop-color="#ED2C7D"/>
</linearGradient>
<linearGradient id="paint6_linear_293_5766" x1="0" y1="17.1797" x2="15.9526" y2="17.1797" gradientUnits="userSpaceOnUse">
<stop stop-color="#F27231"/>
<stop offset="1" stop-color="#FAAD42"/>
</linearGradient>
<linearGradient id="paint7_linear_293_5766" x1="15.9526" y1="19.3765" x2="25.215" y2="19.3765" gradientUnits="userSpaceOnUse">
<stop stop-color="#06B1C8"/>
<stop offset="1" stop-color="#5555A4"/>
</linearGradient>
<linearGradient id="paint8_linear_293_5766" x1="15.9898" y1="19.3725" x2="25.2563" y2="19.3725" gradientUnits="userSpaceOnUse">
<stop stop-color="#0EB2CA"/>
<stop offset="1" stop-color="#5627FF"/>
</linearGradient>
<linearGradient id="paint9_linear_293_5766" x1="5.3136" y1="15.1253" x2="15.9899" y2="15.1253" gradientUnits="userSpaceOnUse">
<stop stop-color="#FF6E00"/>
<stop offset="1" stop-color="#F40076"/>
</linearGradient>
<linearGradient id="paint10_linear_293_5766" x1="0.0405398" y1="17.1797" x2="15.989" y2="17.1797" gradientUnits="userSpaceOnUse">
<stop stop-color="#FF8700"/>
<stop offset="0.13" stop-color="#FE8406"/>
<stop offset="0.32" stop-color="#FC7E1A"/>
<stop offset="0.55" stop-color="#FA7339"/>
<stop offset="0.81" stop-color="#F76464"/>
<stop offset="1" stop-color="#F4588B"/>
</linearGradient>
</defs>
</svg>
